<svg viewBox="0 0 1400 781" xmlns="http://www.w3.org/2000/svg" role="img" aria-label="Padel39 US expansion, radiating from Texas">
<style>
  .land{fill:#DBD7CC;stroke:#C6C1B2;stroke-width:1;stroke-linejoin:round}
  .ring{fill:none;stroke:#C85B1A;opacity:.08}
  .pulse{fill:none;stroke:#C85B1A;transform-box:fill-box;transform-origin:center;animation:pulse 6s ease-out infinite}
  .pulse.b{animation-delay:2s}.pulse.c{animation-delay:4s}
  @keyframes pulse{0%{transform:scale(.05);opacity:.34}70%{opacity:.06}100%{transform:scale(1);opacity:0}}
  .pin .dot{transform-box:fill-box;transform-origin:center;transition:transform .2s cubic-bezier(.2,.8,.2,1)}
  .pin .lab{opacity:0;transition:opacity .18s;paint-order:stroke;stroke:#F3EFE7;stroke-width:4px;stroke-linejoin:round;
            fill:#17130f;font:600 15px "Montserrat",system-ui,sans-serif;text-anchor:middle;pointer-events:none}
  .pin{cursor:pointer}
  .pin:hover .dot{transform:scale(1.4)}
  .pin:hover .lab{opacity:1}
  @media (prefers-reduced-motion: reduce){ .pulse{animation:none;opacity:.12;transform:scale(.62)} }
</style>
<defs><path id="us" d="M892.8 454.7 L932.6 455.1 L936.6 479.7 L942.2 515.8 L944.8 523.8 L947.3 528.3 L946.3 531.1 L949.0 532.9 L945.1 536.5 L945.2 540.0 L943.2 544.9 L945.5 553.5 L943.9 561.0 L946.3 568.8 L935.1 569.0 L887.3 569.0 L886.6 572.7 L891.7 578.2 L890.8 582.9 L892.6 585.2 L889.2 589.5 L886.1 590.4 L880.4 585.7 L879.7 578.7 L878.0 577.9 L875.9 583.2 L875.1 588.4 L869.3 587.0 L867.5 543.3 L872.8 489.1 L876.0 457.8 L873.6 454.8 L892.8 454.7 Z M400.0 397.6 L399.9 559.4 L353.8 559.4 L327.2 548.8 L268.8 526.3 L270.9 519.9 L275.4 518.8 L276.6 516.3 L275.4 511.0 L272.3 510.8 L270.8 500.2 L275.4 496.1 L276.0 491.9 L275.2 485.2 L277.9 480.2 L281.5 478.3 L284.2 474.5 L279.8 470.5 L276.6 463.0 L272.9 458.3 L272.9 454.7 L274.3 450.8 L273.8 445.4 L271.9 440.0 L270.6 423.2 L278.9 422.1 L281.6 425.6 L283.9 425.4 L286.2 420.6 L286.2 397.6 L366.9 397.4 L400.0 397.6 Z M731.1 411.8 L829.3 412.0 L831.3 417.4 L827.8 420.9 L824.2 426.2 L838.9 426.2 L838.2 431.5 L834.8 433.1 L834.1 437.5 L829.8 442.2 L830.2 449.0 L828.0 454.0 L825.7 454.8 L827.1 457.3 L823.5 459.5 L821.9 464.4 L819.5 465.6 L819.9 471.2 L815.8 472.8 L815.9 474.7 L811.2 479.4 L812.5 482.5 L808.4 487.0 L804.8 495.8 L808.8 499.5 L806.8 501.9 L808.0 507.8 L806.3 511.7 L750.8 511.3 L741.0 511.3 L741.0 496.1 L737.7 494.9 L733.2 496.3 L730.9 493.6 L732.1 443.4 L727.9 411.8 L731.1 411.8 Z M77.5 254.6 L96.9 254.5 L127.4 255.0 L150.9 255.0 L151.1 304.4 L150.9 340.5 L180.2 366.2 L207.8 391.3 L229.6 411.8 L245.3 427.0 L272.9 454.7 L272.9 458.3 L276.6 463.0 L279.8 470.5 L284.2 474.5 L281.5 478.3 L277.9 480.2 L275.2 485.2 L276.0 491.9 L275.4 496.1 L270.8 500.2 L272.3 510.8 L275.4 511.0 L276.6 516.3 L275.4 518.8 L270.9 519.9 L240.8 522.5 L216.3 525.0 L213.5 521.3 L213.4 515.3 L211.7 508.3 L208.4 503.3 L201.3 496.4 L192.3 490.0 L190.5 491.7 L187.0 490.6 L187.5 487.8 L183.5 482.0 L178.2 483.3 L168.7 479.1 L167.4 475.6 L161.0 471.4 L153.8 471.6 L147.8 469.7 L140.2 470.5 L136.2 466.7 L137.1 458.7 L135.7 457.5 L136.6 451.8 L130.6 447.6 L130.4 441.8 L128.1 441.5 L124.4 436.5 L121.8 435.4 L120.7 432.3 L112.0 420.6 L107.9 417.1 L107.0 407.9 L108.7 408.7 L110.3 403.2 L107.1 398.2 L103.1 398.8 L97.9 394.3 L96.0 390.7 L96.4 387.3 L93.8 382.7 L93.8 375.2 L98.0 375.2 L96.3 364.7 L94.4 365.8 L94.0 371.0 L89.6 372.1 L84.2 368.2 L83.3 361.5 L79.8 356.1 L75.2 352.9 L72.8 349.1 L66.0 341.8 L67.2 339.6 L64.0 330.0 L65.4 324.7 L63.4 316.7 L57.6 308.9 L51.8 304.5 L50.7 299.4 L56.4 286.9 L57.6 282.6 L56.4 279.4 L58.6 270.8 L56.7 262.9 L54.2 261.1 L55.2 254.8 L77.5 254.6 Z M425.5 283.3 L475.3 283.4 L513.4 283.3 L558.8 283.3 L558.8 311.9 L559.1 397.7 L537.3 397.6 L506.9 397.7 L449.4 397.7 L436.9 397.6 L400.0 397.6 L400.0 364.3 L399.6 361.1 L399.8 336.9 L399.9 283.4 L425.5 283.3 Z M1218.0 253.7 L1246.5 254.2 L1246.5 254.6 L1246.5 271.5 L1245.1 274.2 L1243.1 273.7 L1233.1 275.9 L1221.3 275.3 L1216.2 279.2 L1210.7 280.5 L1204.3 283.7 L1202.6 280.5 L1208.2 277.3 L1206.6 275.0 L1208.1 253.4 L1218.0 253.7 Z M1164.3 317.5 L1162.2 321.0 L1159.8 322.8 L1160.3 327.4 L1163.7 331.6 L1164.6 338.6 L1169.4 346.0 L1171.6 346.3 L1172.6 356.1 L1158.0 355.8 L1155.8 319.9 L1159.7 316.7 L1164.3 317.5 Z M1127.5 340.7 L1130.3 343.5 L1127.3 346.4 L1125.6 342.4 L1127.5 340.7 Z M935.1 569.0 L946.3 568.8 L949.5 577.1 L980.6 579.0 L1009.7 581.2 L1010.8 587.3 L1013.6 587.1 L1014.6 581.3 L1013.7 576.0 L1015.8 573.8 L1021.0 576.2 L1027.3 577.3 L1028.6 589.6 L1031.5 603.5 L1038.1 621.8 L1048.2 641.4 L1046.7 642.8 L1047.2 651.9 L1051.4 662.0 L1058.0 682.5 L1059.4 688.9 L1059.2 695.5 L1056.8 719.1 L1054.6 719.6 L1052.4 726.9 L1053.1 729.3 L1048.8 734.6 L1047.0 733.3 L1042.8 735.5 L1035.6 736.8 L1033.5 733.8 L1034.5 729.4 L1029.4 716.8 L1025.4 714.4 L1021.9 716.1 L1019.2 709.1 L1018.4 703.3 L1013.7 696.9 L1012.6 692.7 L1013.3 686.6 L1010.7 685.5 L1011.3 689.1 L1009.0 690.0 L1001.7 674.5 L998.9 670.6 L1005.7 659.2 L1001.2 659.8 L998.2 663.4 L995.3 657.8 L999.2 642.2 L1000.0 629.2 L997.3 626.1 L996.4 621.8 L992.0 620.9 L986.9 614.0 L982.8 611.2 L982.6 607.0 L979.7 605.4 L977.3 600.7 L968.6 594.5 L961.0 595.9 L961.4 600.3 L958.9 599.5 L949.5 604.8 L939.4 606.0 L939.6 602.9 L937.3 599.2 L925.4 590.7 L917.0 587.1 L909.4 586.2 L903.0 586.8 L889.2 589.5 L892.6 585.2 L890.8 582.9 L891.7 578.2 L886.6 572.7 L887.3 569.0 L935.1 569.0 Z M989.4 454.7 L984.6 460.8 L984.2 463.7 L991.8 469.8 L994.1 469.4 L997.6 475.6 L998.4 478.9 L1002.0 484.8 L1007.2 488.4 L1010.2 493.8 L1016.3 498.6 L1016.1 501.9 L1020.0 507.2 L1026.1 511.6 L1027.6 516.3 L1027.9 522.4 L1031.0 524.4 L1034.6 532.1 L1034.7 536.9 L1039.9 539.4 L1034.3 549.1 L1033.4 554.1 L1031.0 558.5 L1030.7 563.0 L1028.2 565.1 L1027.3 577.3 L1021.0 576.2 L1015.8 573.8 L1013.7 576.0 L1014.6 581.3 L1013.6 587.1 L1010.8 587.3 L1009.7 581.2 L980.6 579.0 L949.5 577.1 L946.3 568.8 L943.9 561.0 L945.5 553.5 L943.2 544.9 L945.2 540.0 L945.1 536.5 L949.0 532.9 L946.3 531.1 L947.3 528.3 L944.8 523.8 L942.2 515.8 L936.6 479.7 L932.6 455.1 L961.9 455.0 L977.8 455.1 L989.4 454.7 Z M240.8 54.9 L240.8 84.2 L248.1 92.2 L248.3 100.0 L252.6 103.4 L257.2 104.7 L257.7 106.7 L266.2 114.4 L267.2 117.5 L273.2 120.5 L273.4 122.3 L280.0 122.2 L276.8 132.8 L276.2 139.6 L278.5 143.9 L274.4 147.1 L276.0 150.0 L274.9 153.2 L279.8 156.1 L285.4 152.2 L287.6 149.1 L291.7 151.9 L291.1 154.3 L293.3 159.7 L297.1 165.5 L299.8 167.5 L299.7 173.0 L302.3 175.4 L307.0 175.7 L310.0 184.9 L312.6 186.5 L315.0 183.8 L322.1 184.0 L327.3 181.5 L330.4 182.9 L335.8 181.6 L336.9 183.2 L341.5 182.1 L346.7 176.1 L350.3 181.1 L354.4 184.1 L354.4 254.8 L329.1 255.0 L286.4 255.0 L218.5 254.8 L218.5 202.6 L221.5 193.2 L219.6 190.8 L215.3 190.4 L213.7 186.5 L218.3 176.3 L220.6 175.4 L223.0 171.1 L222.6 168.5 L225.2 165.0 L226.6 160.0 L231.3 151.6 L229.5 147.7 L224.1 145.6 L221.0 140.8 L220.9 135.8 L217.9 130.8 L218.3 128.4 L218.1 90.3 L218.4 54.9 L240.8 54.9 Z M818.3 240.3 L860.3 240.7 L882.7 240.7 L882.0 246.2 L885.5 252.6 L889.1 263.1 L889.0 330.5 L886.5 335.7 L889.3 341.8 L889.7 346.8 L886.8 350.8 L886.1 354.6 L882.0 360.7 L879.4 361.1 L880.0 364.7 L878.3 366.2 L876.9 372.9 L877.6 374.8 L874.6 378.8 L876.8 383.8 L867.4 386.5 L866.6 389.5 L868.7 393.2 L865.8 395.6 L857.5 391.2 L854.9 391.5 L851.4 396.5 L852.5 398.1 L848.9 397.7 L843.8 389.6 L845.6 387.7 L843.8 382.3 L843.8 377.9 L836.4 371.8 L833.9 372.4 L831.4 368.7 L824.7 362.9 L824.9 358.3 L828.7 351.0 L828.1 348.3 L830.3 344.9 L827.1 342.8 L822.1 341.6 L819.5 344.3 L817.8 342.5 L816.3 333.2 L808.7 327.1 L801.7 319.7 L798.8 310.9 L798.6 305.2 L800.6 301.1 L801.0 295.9 L807.3 292.8 L807.9 288.4 L810.9 285.6 L811.3 280.6 L807.5 276.5 L809.0 271.5 L817.9 270.1 L825.0 266.5 L825.7 262.2 L828.7 260.3 L829.6 254.8 L829.0 251.2 L823.9 248.4 L823.2 245.4 L818.3 240.3 Z M923.9 261.7 L950.8 261.7 L950.8 263.6 L950.9 297.7 L950.6 337.5 L948.8 338.8 L950.7 346.6 L946.7 346.8 L942.5 349.4 L936.6 348.2 L936.9 353.8 L933.0 356.1 L931.5 359.7 L927.5 361.1 L925.4 368.3 L922.8 370.2 L917.7 367.6 L916.8 364.3 L911.9 367.9 L912.2 371.0 L907.1 372.1 L905.6 369.3 L899.9 372.1 L898.0 375.1 L892.3 370.8 L889.3 371.8 L887.3 369.7 L885.5 371.8 L879.7 372.1 L877.6 374.8 L876.9 372.9 L878.3 366.2 L880.0 364.7 L879.4 361.1 L882.0 360.7 L886.1 354.6 L886.8 350.8 L889.7 346.8 L889.3 341.8 L886.5 335.7 L889.0 330.5 L889.1 263.1 L891.3 265.0 L898.3 265.0 L905.0 261.7 L923.9 261.7 Z M801.7 212.0 L805.2 212.0 L805.4 216.2 L808.8 219.0 L806.1 222.4 L806.8 228.8 L808.5 233.4 L816.6 236.7 L818.3 240.3 L823.2 245.4 L823.9 248.4 L829.0 251.2 L829.6 254.8 L828.7 260.3 L825.7 262.2 L825.0 266.5 L817.9 270.1 L809.0 271.5 L807.5 276.5 L811.3 280.6 L810.9 285.6 L807.9 288.4 L807.3 292.8 L801.0 295.9 L800.6 301.1 L798.1 300.2 L793.5 294.4 L791.1 294.5 L758.8 295.3 L727.5 295.6 L701.7 295.2 L699.1 291.4 L700.4 284.0 L698.1 277.6 L698.3 270.4 L694.3 267.9 L693.7 264.0 L695.0 260.6 L693.5 255.6 L690.4 253.7 L686.3 240.9 L682.1 234.6 L684.1 230.4 L684.8 224.8 L686.6 222.7 L683.7 219.9 L684.4 214.9 L683.2 212.6 L686.2 212.0 L801.7 212.0 Z M562.2 311.9 L712.2 311.9 L714.4 314.5 L721.8 316.7 L716.7 325.0 L719.5 327.8 L723.2 334.6 L728.0 336.0 L727.9 397.6 L603.5 397.6 L559.1 397.7 L558.8 311.9 L562.2 311.9 Z M971.4 347.1 L976.5 351.0 L980.1 348.9 L988.7 351.1 L991.2 348.3 L994.4 347.4 L995.4 352.2 L998.0 353.0 L1001.1 356.9 L1000.5 365.5 L1003.2 371.0 L1006.8 375.2 L1008.0 378.5 L1012.3 381.8 L1015.3 382.3 L1006.6 389.9 L998.2 394.1 L998.2 396.3 L994.9 398.2 L994.6 400.7 L990.3 401.8 L988.8 404.9 L976.6 409.0 L976.2 409.5 L956.8 409.2 L939.9 408.2 L935.4 408.5 L910.2 407.4 L881.6 408.1 L876.6 406.8 L877.0 412.0 L848.8 411.7 L846.0 412.0 L847.3 408.4 L850.6 409.6 L852.5 398.1 L851.4 396.5 L854.9 391.5 L857.5 391.2 L865.8 395.6 L868.7 393.2 L866.6 389.5 L867.4 386.5 L876.8 383.8 L874.6 378.8 L877.6 374.8 L879.7 372.1 L885.5 371.8 L887.3 369.7 L889.3 371.8 L892.3 370.8 L898.0 375.1 L899.9 372.1 L905.6 369.3 L907.1 372.1 L912.2 371.0 L911.9 367.9 L916.8 364.3 L917.7 367.6 L922.8 370.2 L925.4 368.3 L927.5 361.1 L931.5 359.7 L933.0 356.1 L936.9 353.8 L936.6 348.2 L942.5 349.4 L946.7 346.8 L950.7 346.6 L948.8 338.8 L950.6 337.5 L959.3 337.5 L963.9 343.5 L964.3 346.0 L971.4 347.1 Z M750.8 511.3 L806.3 511.7 L808.4 515.0 L806.8 516.3 L806.6 522.1 L809.9 525.7 L810.4 534.1 L807.7 540.7 L802.3 544.7 L801.0 551.2 L798.7 550.5 L798.3 561.0 L795.6 561.3 L797.2 566.9 L795.6 569.0 L838.5 569.0 L836.3 578.4 L840.0 584.6 L840.9 589.3 L843.6 592.3 L836.9 596.2 L836.4 599.0 L841.9 600.9 L844.3 596.3 L849.0 600.9 L848.6 604.5 L845.9 606.0 L840.8 604.6 L841.4 607.3 L839.7 611.4 L844.0 615.0 L851.0 616.1 L853.5 620.3 L855.5 620.9 L851.9 625.7 L847.9 624.8 L844.5 619.8 L836.2 617.1 L836.2 612.3 L832.1 613.9 L832.3 617.9 L830.5 621.7 L827.5 622.3 L825.2 618.1 L820.0 617.9 L818.1 622.3 L814.6 623.6 L810.9 620.9 L807.9 620.6 L805.1 613.5 L800.0 610.4 L798.0 610.9 L796.0 604.9 L790.0 605.7 L789.9 602.1 L784.0 605.6 L784.8 608.2 L780.3 610.7 L773.3 609.5 L765.2 605.6 L759.5 603.9 L747.2 605.3 L745.6 606.4 L743.6 603.5 L748.9 593.4 L747.2 587.9 L748.8 584.9 L748.0 581.0 L750.3 578.1 L752.7 570.7 L752.3 564.6 L746.1 553.0 L745.9 546.8 L741.0 540.5 L741.0 511.3 L750.8 511.3 Z M1271.4 224.6 L1268.6 222.6 L1269.0 219.8 L1265.4 216.5 L1263.9 179.0 L1262.8 160.5 L1272.6 156.6 L1271.0 154.6 L1274.7 150.2 L1278.6 148.2 L1277.8 146.4 L1281.4 143.8 L1280.3 138.8 L1282.6 131.3 L1286.0 128.8 L1287.4 120.8 L1305.0 98.9 L1309.1 99.8 L1309.3 105.1 L1312.3 107.0 L1319.7 103.9 L1324.3 103.9 L1327.5 101.9 L1333.8 106.4 L1337.6 110.2 L1337.8 142.2 L1337.3 149.9 L1345.2 151.9 L1344.1 155.2 L1346.0 158.3 L1344.4 161.1 L1347.7 165.5 L1351.9 164.6 L1356.0 174.7 L1351.3 179.3 L1348.5 177.6 L1346.3 180.7 L1343.1 179.9 L1342.7 182.6 L1338.4 182.2 L1331.7 188.3 L1330.1 184.1 L1327.7 183.8 L1328.9 188.3 L1323.6 190.5 L1322.4 186.9 L1319.9 188.8 L1314.1 188.8 L1313.9 184.6 L1310.4 185.5 L1311.1 188.5 L1307.8 194.8 L1308.4 196.5 L1304.2 199.9 L1300.0 198.7 L1297.5 202.3 L1294.0 202.7 L1291.1 205.7 L1287.7 205.1 L1286.7 201.9 L1281.6 207.0 L1282.9 210.1 L1279.2 211.2 L1278.9 213.8 L1274.7 217.1 L1271.4 224.6 Z M1151.1 370.4 L1150.6 370.4 L1150.0 370.4 L1151.1 370.4 Z M1071.9 319.9 L1155.8 319.9 L1158.0 355.8 L1172.6 356.1 L1168.2 368.2 L1164.7 368.7 L1158.5 370.4 L1153.6 371.6 L1153.7 366.9 L1151.9 365.1 L1154.5 363.0 L1151.0 358.3 L1149.9 360.4 L1145.1 359.9 L1143.5 354.7 L1145.0 354.7 L1145.1 348.0 L1146.6 345.4 L1144.6 336.3 L1147.1 331.0 L1151.0 330.0 L1151.6 324.6 L1148.7 325.2 L1148.6 328.0 L1142.6 331.6 L1140.9 334.9 L1140.5 343.2 L1138.3 347.1 L1139.3 353.6 L1142.3 358.2 L1141.9 361.6 L1143.8 365.1 L1142.8 367.4 L1137.5 362.9 L1130.1 360.7 L1127.8 356.3 L1123.6 358.8 L1122.0 355.4 L1125.3 351.0 L1127.3 346.4 L1130.3 343.5 L1127.5 340.7 L1125.6 342.4 L1122.6 339.7 L1117.9 338.3 L1117.9 334.1 L1115.4 331.7 L1111.9 331.3 L1109.3 323.3 L1105.4 323.3 L1101.6 320.6 L1099.5 322.8 L1095.7 322.7 L1094.8 325.8 L1088.1 323.8 L1083.6 328.0 L1080.7 327.1 L1076.2 331.9 L1071.7 334.6 L1071.9 319.9 Z M1266.5 229.5 L1268.7 229.9 L1269.6 234.9 L1268.6 239.0 L1265.0 242.8 L1264.9 247.1 L1269.9 247.8 L1272.8 252.3 L1272.4 255.9 L1274.8 256.8 L1275.1 260.1 L1281.4 262.9 L1288.8 260.3 L1287.2 264.2 L1276.3 267.6 L1272.4 267.8 L1270.0 265.1 L1266.3 265.9 L1266.1 267.9 L1261.9 269.2 L1260.2 264.0 L1259.5 263.1 L1257.2 261.1 L1255.9 254.3 L1252.6 254.3 L1246.5 254.6 L1246.5 254.2 L1218.0 253.7 L1208.1 253.4 L1207.6 252.3 L1213.1 233.5 L1231.5 234.0 L1257.9 234.9 L1260.4 232.3 L1266.5 229.5 Z M981.6 262.5 L950.8 263.6 L950.8 261.7 L923.9 261.7 L905.0 261.7 L909.6 257.9 L912.7 251.5 L915.6 247.6 L917.7 242.1 L919.0 234.3 L918.5 225.9 L911.7 209.3 L913.9 203.0 L912.4 195.5 L917.6 187.9 L918.7 181.5 L918.0 178.0 L921.7 176.6 L922.2 171.9 L928.0 170.7 L932.5 165.5 L932.2 175.8 L934.5 176.3 L937.5 171.1 L937.6 162.4 L939.5 160.2 L945.7 158.8 L943.7 152.7 L947.8 147.5 L952.9 147.2 L958.7 150.5 L964.3 151.0 L967.0 155.0 L971.2 155.3 L978.3 159.1 L980.8 158.9 L984.7 165.0 L981.6 168.3 L984.6 172.5 L985.7 177.4 L984.3 188.0 L979.7 190.7 L978.6 196.2 L973.1 198.0 L970.1 204.6 L971.2 207.1 L976.7 209.5 L980.9 205.9 L985.9 198.5 L993.8 195.7 L997.6 197.9 L1000.0 201.9 L1002.4 213.8 L1002.7 219.8 L1005.2 227.0 L1002.9 237.3 L999.1 238.9 L999.0 235.1 L996.5 236.2 L993.6 244.8 L989.0 248.1 L987.7 254.6 L981.9 260.1 L981.6 262.5 Z M934.9 148.3 L935.3 151.7 L932.3 152.4 L933.5 147.5 L934.9 148.3 Z M887.6 166.4 L884.1 163.5 L886.2 159.4 L880.9 158.8 L883.0 154.9 L883.2 149.9 L878.5 146.4 L875.9 142.8 L866.2 140.0 L863.2 141.0 L853.5 136.7 L830.1 130.9 L827.6 126.1 L823.4 124.4 L832.2 121.4 L836.2 118.0 L846.1 116.6 L852.6 112.3 L855.6 112.2 L858.1 109.2 L865.2 105.0 L868.8 101.4 L874.1 99.0 L879.2 101.1 L870.3 109.8 L868.2 112.8 L868.3 118.1 L872.7 114.1 L880.5 114.7 L886.6 117.5 L892.1 125.3 L895.1 126.7 L900.8 125.5 L902.2 127.2 L907.9 128.1 L920.1 121.6 L926.4 120.9 L934.9 121.3 L940.6 119.1 L945.0 118.9 L945.8 126.9 L950.3 128.0 L954.8 126.7 L956.7 128.6 L959.7 126.3 L966.3 125.5 L966.4 135.5 L969.4 139.7 L973.9 140.8 L974.3 138.0 L978.7 138.0 L981.1 141.0 L979.1 143.1 L966.6 141.3 L960.7 142.5 L954.2 139.1 L952.3 142.2 L953.2 144.9 L950.3 144.2 L946.1 140.3 L938.7 138.0 L935.0 137.8 L931.4 141.6 L925.4 142.5 L919.0 141.7 L916.3 143.3 L915.7 146.4 L908.6 149.1 L909.0 145.3 L905.9 144.6 L904.6 148.5 L899.4 148.6 L897.0 150.3 L893.6 157.1 L887.1 165.7 L887.6 166.4 Z M860.0 84.2 L854.2 87.8 L851.2 88.3 L851.5 85.3 L865.8 78.6 L863.1 83.3 L860.0 84.2 Z M787.0 120.5 L785.3 119.2 L780.7 121.6 L780.7 138.5 L779.3 140.2 L772.8 142.5 L767.6 148.6 L767.2 152.7 L769.8 153.0 L772.7 156.6 L770.1 161.0 L770.6 165.8 L769.0 176.3 L774.9 181.5 L779.7 181.9 L782.0 185.1 L789.0 188.2 L790.1 191.9 L796.6 196.8 L800.2 197.9 L804.6 204.1 L803.9 208.7 L805.2 212.0 L801.7 212.0 L686.2 212.0 L686.2 160.7 L681.0 157.4 L677.0 151.9 L683.2 145.8 L683.7 142.5 L682.8 131.1 L680.1 128.1 L678.2 121.9 L678.6 114.2 L677.7 113.0 L677.0 94.7 L672.5 85.0 L670.7 79.5 L670.0 67.9 L671.5 64.0 L668.5 54.9 L715.7 54.9 L715.7 44.0 L720.2 44.3 L723.2 46.5 L726.1 61.4 L728.5 63.1 L736.0 63.5 L736.8 65.0 L745.6 65.6 L746.6 68.7 L754.0 67.9 L754.0 66.7 L759.9 65.1 L765.0 65.7 L770.8 68.1 L772.4 71.1 L775.8 70.7 L778.9 77.2 L780.4 74.5 L786.1 73.2 L787.1 75.9 L793.9 77.8 L793.9 80.3 L797.2 82.3 L804.1 81.2 L808.2 78.4 L813.8 76.7 L815.8 80.9 L819.6 80.0 L824.2 80.9 L829.6 80.3 L835.7 83.9 L841.5 83.3 L841.0 84.8 L833.4 88.4 L822.9 91.2 L816.0 94.2 L806.2 101.5 L801.9 106.1 L795.5 111.2 L785.3 118.1 L787.0 120.5 Z M867.5 454.8 L873.6 454.8 L876.0 457.8 L872.8 489.1 L867.5 543.3 L869.3 587.0 L866.8 588.2 L861.3 587.6 L859.1 585.7 L853.6 587.0 L846.0 590.2 L843.6 592.3 L840.9 589.3 L840.0 584.6 L836.3 578.4 L838.5 569.0 L795.6 569.0 L797.2 566.9 L795.6 561.3 L798.3 561.0 L798.7 550.5 L801.0 551.2 L802.3 544.7 L807.7 540.7 L810.4 534.1 L809.9 525.7 L806.6 522.1 L806.8 516.3 L808.4 515.0 L806.3 511.7 L808.0 507.8 L806.8 501.9 L808.8 499.5 L804.8 495.8 L808.4 487.0 L812.5 482.5 L811.2 479.4 L815.9 474.7 L815.8 472.8 L819.9 471.2 L819.5 465.6 L821.9 464.4 L823.5 459.5 L827.1 457.3 L825.7 454.8 L867.5 454.8 Z M791.1 294.5 L793.5 294.4 L798.1 300.2 L800.6 301.1 L798.6 305.2 L798.8 310.9 L801.7 319.7 L808.7 327.1 L816.3 333.2 L817.8 342.5 L819.5 344.3 L822.1 341.6 L827.1 342.8 L830.3 344.9 L828.1 348.3 L828.7 351.0 L824.9 358.3 L824.7 362.9 L831.4 368.7 L833.9 372.4 L836.4 371.8 L843.8 377.9 L843.8 382.3 L845.6 387.7 L843.8 389.6 L848.9 397.7 L852.5 398.1 L850.6 409.6 L847.3 408.4 L846.0 412.0 L844.5 412.0 L843.3 412.0 L843.4 419.0 L838.9 426.2 L824.2 426.2 L827.8 420.9 L831.3 417.4 L829.3 412.0 L731.1 411.8 L727.9 411.8 L727.9 397.6 L728.0 336.0 L723.2 334.6 L719.5 327.8 L716.7 325.0 L721.8 316.7 L714.4 314.5 L712.2 311.9 L706.6 304.4 L701.7 295.2 L727.5 295.6 L758.8 295.3 L791.1 294.5 Z M513.5 54.9 L513.7 87.5 L513.5 142.2 L513.7 169.3 L513.3 169.3 L471.1 169.1 L399.1 169.1 L354.3 169.1 L354.4 184.1 L350.3 181.1 L346.7 176.1 L341.5 182.1 L336.9 183.2 L335.8 181.6 L330.4 182.9 L327.3 181.5 L322.1 184.0 L315.0 183.8 L312.6 186.5 L310.0 184.9 L307.0 175.7 L302.3 175.4 L299.7 173.0 L299.8 167.5 L297.1 165.5 L293.3 159.7 L291.1 154.3 L291.7 151.9 L287.6 149.1 L285.4 152.2 L279.8 156.1 L274.9 153.2 L276.0 150.0 L274.4 147.1 L278.5 143.9 L276.2 139.6 L276.8 132.8 L280.0 122.2 L273.4 122.3 L273.2 120.5 L267.2 117.5 L266.2 114.4 L257.7 106.7 L257.2 104.7 L252.6 103.4 L248.3 100.0 L248.1 92.2 L240.8 84.2 L240.8 54.9 L344.1 55.1 L390.7 54.9 L513.5 54.9 Z M530.0 226.2 L568.6 226.3 L639.6 226.3 L640.4 227.8 L652.1 232.9 L654.8 230.1 L658.1 230.7 L668.8 230.7 L680.7 236.0 L682.2 240.1 L686.3 240.9 L690.4 253.7 L693.5 255.6 L695.0 260.6 L693.7 264.0 L694.3 267.9 L698.3 270.4 L698.1 277.6 L700.4 284.0 L699.1 291.4 L701.7 295.2 L706.6 304.4 L712.2 311.9 L562.2 311.9 L558.8 311.9 L558.8 283.3 L513.4 283.3 L513.4 226.2 L530.0 226.2 Z M218.5 254.8 L286.4 255.0 L286.2 397.6 L286.2 420.6 L283.9 425.4 L281.6 425.6 L278.9 422.1 L270.6 423.2 L271.9 440.0 L273.8 445.4 L274.3 450.8 L272.9 454.7 L245.3 427.0 L229.6 411.8 L207.8 391.3 L180.2 366.2 L150.9 340.5 L151.1 304.4 L150.9 255.0 L180.6 255.1 L218.5 254.8 Z M1262.8 160.5 L1263.9 179.0 L1265.4 216.5 L1269.0 219.8 L1268.6 222.6 L1271.4 224.6 L1268.7 229.9 L1266.5 229.5 L1260.4 232.3 L1257.9 234.9 L1231.5 234.0 L1229.5 231.8 L1229.8 227.6 L1231.8 226.0 L1231.5 222.0 L1233.3 209.9 L1237.2 204.3 L1239.2 197.9 L1241.2 195.5 L1241.1 188.5 L1248.7 185.8 L1252.4 181.0 L1250.3 176.3 L1253.4 171.6 L1253.2 168.8 L1256.4 161.4 L1261.6 162.2 L1262.8 160.5 Z M1191.1 279.4 L1198.7 283.4 L1195.9 291.7 L1192.2 293.6 L1190.2 298.0 L1196.4 300.2 L1196.9 303.4 L1194.2 318.8 L1187.1 330.2 L1182.5 333.5 L1178.4 340.7 L1176.3 336.0 L1169.7 333.6 L1161.6 327.4 L1161.1 323.1 L1160.9 322.5 L1162.2 321.0 L1164.3 317.5 L1170.4 315.2 L1170.8 313.0 L1177.7 308.3 L1178.9 305.8 L1172.4 300.0 L1172.1 296.4 L1169.3 295.5 L1169.0 292.2 L1172.5 287.2 L1170.7 284.2 L1176.4 278.3 L1177.6 275.1 L1180.6 273.1 L1191.1 279.4 Z M436.9 397.6 L449.4 397.7 L506.9 397.7 L537.3 397.6 L537.3 411.8 L536.4 411.8 L536.3 482.8 L535.8 511.7 L535.8 540.4 L455.2 540.4 L454.5 543.2 L457.1 546.5 L418.9 546.5 L418.9 559.4 L399.9 559.4 L400.0 397.6 L436.9 397.6 Z M1211.4 168.8 L1211.6 174.7 L1210.4 180.1 L1212.5 185.2 L1211.9 190.7 L1209.2 196.5 L1211.2 204.3 L1210.0 206.6 L1213.6 211.3 L1212.9 231.0 L1213.1 233.5 L1207.6 252.3 L1208.1 253.4 L1206.6 275.0 L1208.2 277.3 L1202.6 280.5 L1204.3 283.7 L1214.0 286.1 L1216.0 284.4 L1224.3 284.4 L1228.5 283.4 L1235.5 278.9 L1236.0 282.2 L1239.6 283.6 L1231.3 287.8 L1213.7 294.1 L1206.4 295.3 L1201.5 295.0 L1197.9 296.4 L1195.9 291.7 L1198.7 283.4 L1191.1 279.4 L1180.6 273.1 L1179.6 271.1 L1176.1 270.9 L1172.0 266.1 L1172.5 261.8 L1169.8 258.6 L1168.0 258.7 L1165.5 254.8 L1065.5 254.8 L1065.5 247.6 L1065.5 247.1 L1079.4 239.0 L1081.7 235.1 L1086.1 232.4 L1084.4 227.6 L1082.5 226.7 L1081.2 218.8 L1094.5 215.6 L1106.3 215.7 L1111.0 216.5 L1116.1 219.6 L1119.4 218.4 L1129.2 218.5 L1135.2 216.5 L1141.5 211.3 L1145.6 211.2 L1145.8 203.4 L1147.9 198.8 L1142.8 195.7 L1143.9 192.1 L1153.0 187.2 L1156.3 183.0 L1167.3 173.5 L1177.6 168.6 L1193.1 169.4 L1211.4 168.8 Z M1037.8 410.1 L1053.4 410.6 L1071.2 410.7 L1154.0 410.4 L1156.6 421.8 L1150.2 420.7 L1149.4 422.1 L1141.6 423.9 L1140.5 425.4 L1135.4 425.9 L1135.7 427.9 L1141.9 426.5 L1142.8 427.8 L1149.6 426.4 L1151.9 429.0 L1156.0 427.9 L1157.5 434.8 L1156.1 438.1 L1153.3 438.4 L1147.6 445.4 L1140.0 445.7 L1138.8 450.6 L1142.0 455.4 L1144.6 456.4 L1139.8 464.4 L1135.7 463.4 L1128.5 464.2 L1123.5 465.9 L1115.6 471.4 L1109.4 478.6 L1106.2 487.7 L1101.4 485.6 L1093.2 487.5 L1067.5 460.3 L1041.9 459.8 L1042.3 456.5 L1038.8 451.7 L1036.5 453.4 L1036.3 450.4 L1008.3 449.0 L1002.1 450.1 L997.3 452.8 L989.4 454.7 L977.8 455.1 L961.9 455.0 L962.5 448.3 L967.0 447.6 L968.7 442.9 L974.3 438.7 L980.6 438.6 L986.2 434.2 L992.0 432.6 L997.0 426.2 L1000.1 424.3 L1000.7 427.1 L1009.7 421.7 L1013.8 422.8 L1016.7 417.4 L1020.9 416.0 L1021.9 409.3 L1037.8 410.1 Z M668.5 54.9 L671.5 64.0 L670.0 67.9 L670.7 79.5 L672.5 85.0 L677.0 94.7 L677.7 113.0 L678.6 114.2 L678.2 121.9 L680.1 128.1 L682.8 131.1 L683.7 142.5 L513.5 142.2 L513.7 87.5 L513.5 54.9 L668.5 54.9 Z M1048.3 255.4 L1048.3 293.7 L1044.9 295.3 L1046.5 298.4 L1046.4 302.8 L1043.3 309.7 L1041.2 320.2 L1032.4 329.4 L1029.5 330.7 L1027.0 328.8 L1024.4 332.8 L1021.8 332.7 L1018.9 338.2 L1019.5 341.4 L1017.2 344.1 L1013.8 339.7 L1009.6 346.6 L1010.7 351.0 L1008.0 352.5 L1007.1 356.3 L1001.1 356.9 L998.0 353.0 L995.4 352.2 L994.4 347.4 L991.2 348.3 L988.7 351.1 L980.1 348.9 L976.5 351.0 L971.4 347.1 L964.3 346.0 L963.9 343.5 L959.3 337.5 L950.6 337.5 L950.9 297.7 L950.8 263.6 L981.6 262.5 L990.4 266.4 L993.4 268.7 L995.6 266.5 L1000.6 271.1 L1003.7 272.5 L1014.3 268.7 L1020.5 269.5 L1027.3 264.2 L1037.1 259.0 L1048.3 255.4 L1048.3 255.4 Z M603.5 397.6 L727.9 397.6 L727.9 411.8 L732.1 443.4 L730.9 493.6 L722.2 490.5 L719.9 487.2 L714.1 484.4 L712.6 486.9 L706.7 486.7 L705.5 485.2 L700.1 488.0 L697.9 486.4 L693.0 487.8 L688.5 492.2 L686.8 489.7 L682.1 487.7 L677.1 487.7 L675.5 484.4 L669.8 490.8 L667.9 487.2 L665.3 488.3 L663.3 485.9 L657.9 483.8 L653.9 487.5 L652.2 483.6 L649.0 483.1 L647.1 480.0 L642.7 478.7 L639.9 481.4 L638.0 479.1 L633.5 479.4 L628.5 476.9 L623.9 477.2 L622.3 471.7 L615.1 471.4 L612.4 472.3 L607.3 466.9 L605.5 467.2 L605.5 411.8 L564.3 411.8 L537.3 411.8 L537.3 397.6 L559.1 397.7 L603.5 397.6 Z M78.0 135.6 L80.1 135.3 L85.0 138.3 L87.1 141.7 L88.2 150.3 L99.9 153.5 L109.8 148.9 L116.1 148.5 L123.3 150.0 L124.0 151.9 L136.5 147.8 L139.5 149.2 L146.2 148.5 L151.8 145.6 L161.8 143.1 L170.8 142.5 L174.0 140.6 L221.0 140.8 L224.1 145.6 L229.5 147.7 L231.3 151.6 L226.6 160.0 L225.2 165.0 L222.6 168.5 L223.0 171.1 L220.6 175.4 L218.3 176.3 L213.7 186.5 L215.3 190.4 L219.6 190.8 L221.5 193.2 L218.5 202.6 L218.5 254.8 L180.6 255.1 L150.9 255.0 L127.4 255.0 L96.9 254.5 L77.5 254.6 L55.2 254.8 L52.0 251.5 L50.2 242.3 L50.6 235.9 L47.5 230.9 L49.7 226.2 L51.3 218.5 L54.7 210.4 L56.2 203.2 L58.7 179.0 L58.3 175.7 L60.6 165.0 L61.4 150.3 L60.2 142.2 L61.3 137.4 L70.4 133.1 L74.4 136.4 L78.0 135.6 Z M1065.5 247.6 L1065.5 254.8 L1165.5 254.8 L1168.0 258.7 L1169.8 258.6 L1172.5 261.8 L1172.0 266.1 L1176.1 270.9 L1179.6 271.1 L1180.6 273.1 L1177.6 275.1 L1176.4 278.3 L1170.7 284.2 L1172.5 287.2 L1169.0 292.2 L1169.3 295.5 L1172.1 296.4 L1172.4 300.0 L1178.9 305.8 L1177.7 308.3 L1170.8 313.0 L1170.4 315.2 L1164.3 317.5 L1159.7 316.7 L1155.8 319.9 L1071.9 319.9 L1048.3 319.9 L1048.3 293.7 L1048.3 255.4 L1048.3 255.4 L1052.5 253.9 L1065.5 247.1 L1065.5 247.6 Z M1260.2 264.0 L1261.9 269.2 L1257.4 269.8 L1260.2 264.0 Z M1252.6 254.3 L1255.9 254.3 L1257.2 261.1 L1259.5 263.1 L1256.8 262.6 L1254.4 266.8 L1253.7 272.8 L1245.1 274.2 L1246.5 271.5 L1246.5 254.6 L1252.6 254.3 Z M997.3 452.8 L1002.1 450.1 L1008.3 449.0 L1036.3 450.4 L1036.5 453.4 L1038.8 451.7 L1042.3 456.5 L1041.9 459.8 L1067.5 460.3 L1093.2 487.5 L1089.2 488.9 L1084.3 493.6 L1079.4 501.0 L1078.5 506.9 L1074.7 511.6 L1069.6 511.6 L1068.5 515.0 L1063.1 518.8 L1060.1 522.8 L1055.4 524.6 L1050.3 528.9 L1049.8 531.0 L1045.1 533.3 L1039.9 539.4 L1034.7 536.9 L1034.6 532.1 L1031.0 524.4 L1027.9 522.4 L1027.6 516.3 L1026.1 511.6 L1020.0 507.2 L1016.1 501.9 L1016.3 498.6 L1010.2 493.8 L1007.2 488.4 L1002.0 484.8 L998.4 478.9 L997.6 475.6 L994.1 469.4 L991.8 469.8 L984.2 463.7 L984.6 460.8 L989.4 454.7 L997.3 452.8 Z M513.5 142.2 L683.7 142.5 L683.2 145.8 L677.0 151.9 L681.0 157.4 L686.2 160.7 L686.2 212.0 L683.2 212.6 L684.4 214.9 L683.7 219.9 L686.6 222.7 L684.8 224.8 L684.1 230.4 L682.1 234.6 L686.3 240.9 L682.2 240.1 L680.7 236.0 L668.8 230.7 L658.1 230.7 L654.8 230.1 L652.1 232.9 L640.4 227.8 L639.6 226.3 L568.6 226.3 L530.0 226.2 L513.4 226.2 L513.3 169.3 L513.7 169.3 L513.5 142.2 Z M877.0 412.0 L876.6 406.8 L881.6 408.1 L910.2 407.4 L935.4 408.5 L939.9 408.2 L956.8 409.2 L976.2 409.5 L976.6 409.0 L1021.9 409.3 L1020.9 416.0 L1016.7 417.4 L1013.8 422.8 L1009.7 421.7 L1000.7 427.1 L1000.1 424.3 L997.0 426.2 L992.0 432.6 L986.2 434.2 L980.6 438.6 L974.3 438.7 L968.7 442.9 L967.0 447.6 L962.5 448.3 L961.9 455.0 L932.6 455.1 L892.8 454.7 L873.6 454.8 L867.5 454.8 L825.7 454.8 L828.0 454.0 L830.2 449.0 L829.8 442.2 L834.1 437.5 L834.8 433.1 L838.2 431.5 L838.9 426.2 L843.4 419.0 L843.3 412.0 L844.5 412.0 L846.0 412.0 L848.8 411.7 L877.0 412.0 Z M564.3 411.8 L605.5 411.8 L605.5 467.2 L607.3 466.9 L612.4 472.3 L615.1 471.4 L622.3 471.7 L623.9 477.2 L628.5 476.9 L633.5 479.4 L638.0 479.1 L639.9 481.4 L642.7 478.7 L647.1 480.0 L649.0 483.1 L652.2 483.6 L653.9 487.5 L657.9 483.8 L663.3 485.9 L665.3 488.3 L667.9 487.2 L669.8 490.8 L675.5 484.4 L677.1 487.7 L682.1 487.7 L686.8 489.7 L688.5 492.2 L693.0 487.8 L697.9 486.4 L700.1 488.0 L705.5 485.2 L706.7 486.7 L712.6 486.9 L714.1 484.4 L719.9 487.2 L722.2 490.5 L730.9 493.6 L733.2 496.3 L737.7 494.9 L741.0 496.1 L741.0 511.3 L741.0 540.5 L745.9 546.8 L746.1 553.0 L752.3 564.6 L752.7 570.7 L750.3 578.1 L748.0 581.0 L748.8 584.9 L747.2 587.9 L748.9 593.4 L743.6 603.5 L745.6 606.4 L741.8 606.5 L730.0 610.4 L725.8 608.2 L725.0 603.5 L722.0 606.8 L719.9 606.0 L718.8 610.1 L721.2 611.8 L721.5 617.1 L717.3 622.8 L710.5 629.8 L696.8 637.3 L695.4 636.1 L691.3 637.9 L691.2 636.2 L685.6 637.5 L682.9 633.9 L681.3 634.7 L687.3 642.0 L682.9 644.4 L678.8 642.9 L678.2 648.1 L673.1 653.4 L667.9 663.3 L664.5 673.6 L662.0 672.8 L661.4 676.6 L664.0 675.6 L662.8 683.1 L661.0 683.5 L660.9 687.7 L663.0 690.0 L663.7 698.6 L666.1 701.6 L666.8 707.1 L668.8 711.9 L661.8 714.9 L658.9 711.1 L653.6 709.7 L646.5 710.0 L640.4 705.3 L635.8 704.9 L632.3 701.1 L627.6 699.9 L624.3 696.3 L622.2 687.7 L618.1 682.5 L618.6 678.1 L616.7 673.4 L617.3 669.4 L614.5 664.8 L612.1 664.4 L608.3 660.3 L607.0 655.1 L603.7 650.5 L598.8 646.5 L596.4 637.9 L594.2 635.6 L591.2 628.7 L590.2 623.1 L587.3 619.0 L582.5 615.4 L581.4 612.9 L576.9 610.7 L573.4 604.5 L563.4 603.1 L557.5 603.4 L552.4 601.2 L551.2 604.2 L545.8 605.1 L541.7 611.0 L539.2 620.6 L537.8 620.7 L534.7 626.4 L531.0 626.5 L525.4 622.2 L511.3 615.1 L508.6 611.4 L503.1 607.8 L499.2 599.6 L499.0 592.3 L495.1 586.3 L494.2 581.2 L491.7 577.9 L482.9 573.0 L478.2 566.5 L474.3 564.1 L470.2 558.5 L464.5 555.5 L460.5 548.0 L457.1 546.5 L454.5 543.2 L455.2 540.4 L535.8 540.4 L535.8 511.7 L536.3 482.8 L536.4 411.8 L537.3 411.8 L564.3 411.8 Z M329.1 255.0 L354.4 254.8 L354.4 283.4 L399.9 283.4 L399.8 336.9 L399.6 361.1 L400.0 364.3 L400.0 397.6 L366.9 397.4 L286.2 397.6 L286.4 255.0 L329.1 255.0 Z M1253.2 168.8 L1253.4 171.6 L1250.3 176.3 L1252.4 181.0 L1248.7 185.8 L1241.1 188.5 L1241.2 195.5 L1239.2 197.9 L1237.2 204.3 L1233.3 209.9 L1231.5 222.0 L1231.8 226.0 L1229.8 227.6 L1229.5 231.8 L1231.5 234.0 L1213.1 233.5 L1212.9 231.0 L1213.6 211.3 L1210.0 206.6 L1211.2 204.3 L1209.2 196.5 L1211.9 190.7 L1212.5 185.2 L1210.4 180.1 L1211.6 174.7 L1211.4 168.8 L1234.9 169.1 L1253.2 168.8 Z M1164.7 368.7 L1168.2 368.2 L1165.2 373.0 L1162.1 374.8 L1160.2 381.3 L1155.5 392.0 L1151.6 394.1 L1150.4 390.2 L1152.4 381.5 L1158.5 370.4 L1164.7 368.7 Z M1150.6 370.4 L1151.1 370.4 L1150.0 370.4 L1150.6 370.4 Z M1097.6 327.2 L1109.4 336.8 L1111.9 331.3 L1115.4 331.7 L1117.9 334.1 L1117.9 338.3 L1122.6 339.7 L1125.6 342.4 L1127.3 346.4 L1125.3 351.0 L1122.6 352.2 L1120.9 356.3 L1121.9 359.3 L1128.0 358.3 L1129.1 362.9 L1137.0 364.7 L1139.3 368.3 L1145.6 372.2 L1142.8 380.2 L1145.4 386.5 L1142.3 389.5 L1141.9 393.0 L1144.8 395.2 L1141.6 398.7 L1136.9 394.1 L1135.8 395.7 L1139.9 399.0 L1151.1 399.8 L1154.0 410.4 L1071.2 410.7 L1053.4 410.6 L1037.8 410.1 L1021.9 409.3 L976.6 409.0 L988.8 404.9 L990.3 401.8 L994.6 400.7 L994.9 398.2 L998.2 396.3 L998.2 394.1 L1006.6 389.9 L1015.3 382.3 L1014.9 384.6 L1018.0 389.5 L1021.9 391.8 L1024.8 391.6 L1029.1 387.9 L1032.2 390.9 L1038.1 389.3 L1048.4 383.8 L1049.3 385.5 L1053.3 383.0 L1053.4 377.9 L1055.9 373.3 L1060.1 369.1 L1061.9 364.0 L1066.3 358.6 L1068.1 352.1 L1071.9 356.0 L1075.7 357.2 L1078.0 354.9 L1082.9 344.7 L1085.8 347.2 L1096.3 335.7 L1097.6 327.2 Z M218.4 54.9 L218.1 90.3 L218.3 128.4 L217.9 130.8 L220.9 135.8 L221.0 140.8 L174.0 140.6 L170.8 142.5 L161.8 143.1 L151.8 145.6 L146.2 148.5 L139.5 149.2 L136.5 147.8 L124.0 151.9 L123.3 150.0 L116.1 148.5 L109.8 148.9 L99.9 153.5 L88.2 150.3 L87.1 141.7 L85.0 138.3 L80.1 135.3 L78.0 135.6 L74.4 136.4 L70.4 133.1 L66.3 132.0 L62.9 133.8 L58.6 131.3 L59.4 127.4 L62.4 125.3 L57.8 119.4 L54.7 103.9 L52.8 101.9 L50.3 90.9 L45.9 86.7 L44.0 78.2 L46.5 72.6 L51.1 75.3 L60.4 78.9 L66.8 78.7 L73.1 80.1 L79.1 78.7 L82.0 81.2 L87.3 81.1 L91.1 87.3 L93.8 86.8 L94.3 95.3 L95.9 103.0 L98.1 102.2 L95.9 95.6 L96.5 89.2 L100.3 82.6 L97.3 80.0 L97.0 75.3 L94.8 70.1 L95.9 66.4 L94.4 62.0 L90.8 61.4 L87.4 58.1 L88.3 54.9 L218.4 54.9 Z M89.2 74.7 L92.2 73.4 L91.7 79.2 L88.1 77.0 L89.2 74.7 Z M82.2 66.8 L84.7 63.1 L88.1 67.6 L87.1 71.5 L81.8 70.4 L82.2 66.8 Z M1048.3 293.7 L1048.3 319.9 L1071.9 319.9 L1071.7 334.6 L1076.2 331.9 L1080.7 327.1 L1083.6 328.0 L1088.1 323.8 L1094.8 325.8 L1095.7 322.7 L1099.5 322.8 L1101.6 320.6 L1105.4 323.3 L1109.3 323.3 L1111.9 331.3 L1109.4 336.8 L1097.6 327.2 L1096.3 335.7 L1085.8 347.2 L1082.9 344.7 L1078.0 354.9 L1075.7 357.2 L1071.9 356.0 L1068.1 352.1 L1066.3 358.6 L1061.9 364.0 L1060.1 369.1 L1055.9 373.3 L1053.4 377.9 L1053.3 383.0 L1049.3 385.5 L1048.4 383.8 L1038.1 389.3 L1032.2 390.9 L1029.1 387.9 L1024.8 391.6 L1021.9 391.8 L1018.0 389.5 L1014.9 384.6 L1015.3 382.3 L1012.3 381.8 L1008.0 378.5 L1006.8 375.2 L1003.2 371.0 L1000.5 365.5 L1001.1 356.9 L1007.1 356.3 L1008.0 352.5 L1010.7 351.0 L1009.6 346.6 L1013.8 339.7 L1017.2 344.1 L1019.5 341.4 L1018.9 338.2 L1021.8 332.7 L1024.4 332.8 L1027.0 328.8 L1029.5 330.7 L1032.4 329.4 L1041.2 320.2 L1043.3 309.7 L1046.4 302.8 L1046.5 298.4 L1044.9 295.3 L1048.3 293.7 Z M823.4 124.4 L827.6 126.1 L830.1 130.9 L853.5 136.7 L863.2 141.0 L866.2 140.0 L875.9 142.8 L878.5 146.4 L883.2 149.9 L883.0 154.9 L880.9 158.8 L886.2 159.4 L884.1 163.5 L887.6 166.4 L886.7 169.9 L882.4 170.5 L878.6 177.1 L877.3 181.6 L879.9 182.4 L883.4 179.4 L887.1 173.8 L891.8 171.6 L895.6 164.4 L900.3 162.9 L899.9 166.6 L896.7 170.0 L890.3 181.9 L888.6 188.5 L888.7 193.2 L886.3 194.8 L884.2 201.2 L885.0 206.6 L883.0 210.2 L880.2 219.1 L880.9 226.2 L883.6 232.4 L882.7 240.7 L860.3 240.7 L818.3 240.3 L816.6 236.7 L808.5 233.4 L806.8 228.8 L806.1 222.4 L808.8 219.0 L805.4 216.2 L805.2 212.0 L803.9 208.7 L804.6 204.1 L800.2 197.9 L796.6 196.8 L790.1 191.9 L789.0 188.2 L782.0 185.1 L779.7 181.9 L774.9 181.5 L769.0 176.3 L770.6 165.8 L770.1 161.0 L772.7 156.6 L769.8 153.0 L767.2 152.7 L767.6 148.6 L772.8 142.5 L779.3 140.2 L780.7 138.5 L780.7 121.6 L785.3 119.2 L787.0 120.5 L792.1 120.8 L807.9 115.9 L813.8 113.3 L815.8 115.3 L812.7 119.1 L820.1 123.9 L823.4 124.4 Z M399.1 169.1 L471.1 169.1 L513.3 169.3 L513.4 226.2 L513.4 283.3 L475.3 283.4 L425.5 283.3 L399.9 283.4 L354.4 283.4 L354.4 254.8 L354.4 184.1 L354.3 169.1 L399.1 169.1 Z"/><clipPath id="clip"><use href="#us"/></clipPath></defs>
<use href="#us" class="land"/>
<g clip-path="url(#clip)">
<circle class="ring" cx="656.9" cy="589.8" r="150"/>
<circle class="ring" cx="656.9" cy="589.8" r="280"/>
<circle class="ring" cx="656.9" cy="589.8" r="410"/>
<circle class="ring" cx="656.9" cy="589.8" r="540"/>
<circle class="ring" cx="656.9" cy="589.8" r="670"/>
<circle class="ring" cx="656.9" cy="589.8" r="800"/>
<circle class="pulse " cx="656.9" cy="589.8" r="820" stroke-width="2"/>
<circle class="pulse b" cx="656.9" cy="589.8" r="820" stroke-width="2"/>
<circle class="pulse c" cx="656.9" cy="589.8" r="820" stroke-width="2"/>
</g>
<g class="pin"><circle cx="1127.4" cy="343.3" r="11" fill="#00351f" opacity="0.14"/><circle class="dot" cx="1127.4" cy="343.3" r="6" fill="#00351f" stroke="#F3EFE7" stroke-width="2.2"/><text class="lab" x="1127.4" y="328.3">Washington DC</text></g>
<g class="pin"><circle cx="1263.3" cy="244.5" r="11" fill="#00351f" opacity="0.14"/><circle class="dot" cx="1263.3" cy="244.5" r="6" fill="#00351f" stroke="#F3EFE7" stroke-width="2.2"/><text class="lab" x="1263.3" y="229.5">Boston</text></g>
<g class="pin"><circle cx="261.4" cy="421.3" r="11" fill="#00351f" opacity="0.14"/><circle class="dot" cx="261.4" cy="421.3" r="6" fill="#00351f" stroke="#F3EFE7" stroke-width="2.2"/><text class="lab" x="261.4" y="406.3">Las Vegas</text></g>
<g class="pin"><circle cx="1055.8" cy="718.5" r="11" fill="#00351f" opacity="0.14"/><circle class="dot" cx="1055.8" cy="718.5" r="6" fill="#00351f" stroke="#F3EFE7" stroke-width="2.2"/><text class="lab" x="1055.8" y="703.5">Miami</text></g>
<g class="pin"><circle cx="331.2" cy="499.0" r="11" fill="#00351f" opacity="0.14"/><circle class="dot" cx="331.2" cy="499.0" r="6" fill="#00351f" stroke="#F3EFE7" stroke-width="2.2"/><text class="lab" x="331.2" y="484.0">Phoenix</text></g>
<g class="pin"><circle cx="191.0" cy="481.8" r="11" fill="#00351f" opacity="0.14"/><circle class="dot" cx="191.0" cy="481.8" r="6" fill="#00351f" stroke="#F3EFE7" stroke-width="2.2"/><text class="lab" x="191.0" y="466.8">Los Angeles</text></g>
<g class="pin"><circle cx="98.0" cy="94.6" r="11" fill="#00351f" opacity="0.14"/><circle class="dot" cx="98.0" cy="94.6" r="6" fill="#00351f" stroke="#F3EFE7" stroke-width="2.2"/><text class="lab" x="98.0" y="79.6">Seattle</text></g>
<g class="pin"><circle cx="886.7" cy="258.3" r="11" fill="#00351f" opacity="0.14"/><circle class="dot" cx="886.7" cy="258.3" r="6" fill="#00351f" stroke="#F3EFE7" stroke-width="2.2"/><text class="lab" x="886.7" y="243.3">Chicago</text></g>
<g class="pin"><circle cx="1196.2" cy="291.7" r="11" fill="#00351f" opacity="0.14"/><circle class="dot" cx="1196.2" cy="291.7" r="6" fill="#00351f" stroke="#F3EFE7" stroke-width="2.2"/><text class="lab" x="1196.2" y="276.7">New York</text></g>
<g class="pin"><circle cx="1169.9" cy="313.4" r="11" fill="#00351f" opacity="0.14"/><circle class="dot" cx="1169.9" cy="313.4" r="6" fill="#00351f" stroke="#F3EFE7" stroke-width="2.2"/><text class="lab" x="1169.9" y="298.4">Philadelphia</text></g>
<g class="pin"><circle cx="758.5" cy="169.7" r="11" fill="#00351f" opacity="0.14"/><circle class="dot" cx="758.5" cy="169.7" r="6" fill="#00351f" stroke="#F3EFE7" stroke-width="2.2"/><text class="lab" x="758.5" y="154.7">Minneapolis</text></g>
<g class="pin"><circle cx="728.7" cy="337.6" r="11" fill="#00351f" opacity="0.14"/><circle class="dot" cx="728.7" cy="337.6" r="6" fill="#00351f" stroke="#F3EFE7" stroke-width="2.2"/><text class="lab" x="728.7" y="322.6">Kansas City</text></g>
<g class="pin"><circle cx="335.3" cy="290.2" r="11" fill="#00351f" opacity="0.14"/><circle class="dot" cx="335.3" cy="290.2" r="6" fill="#00351f" stroke="#F3EFE7" stroke-width="2.2"/><text class="lab" x="335.3" y="275.2">Salt Lake City</text></g>
<g class="pin"><circle cx="90.1" cy="154.3" r="11" fill="#00351f" opacity="0.14"/><circle class="dot" cx="90.1" cy="154.3" r="6" fill="#00351f" stroke="#F3EFE7" stroke-width="2.2"/><text class="lab" x="90.1" y="139.3">Portland</text></g>
<g class="pin"><circle cx="1004.2" cy="656.0" r="11" fill="#00351f" opacity="0.14"/><circle class="dot" cx="1004.2" cy="656.0" r="6" fill="#00351f" stroke="#F3EFE7" stroke-width="2.2"/><text class="lab" x="1004.2" y="641.0">Tampa</text></g>
<g class="pin"><circle cx="1091.0" cy="432.4" r="11" fill="#00351f" opacity="0.14"/><circle class="dot" cx="1091.0" cy="432.4" r="6" fill="#00351f" stroke="#F3EFE7" stroke-width="2.2"/><text class="lab" x="1091.0" y="417.4">Raleigh</text></g>
<g class="pin"><circle cx="655.8" cy="592.3" r="13.5" fill="#C85B1A" opacity="0.14"/><circle class="dot" cx="655.8" cy="592.3" r="8.5" fill="#C85B1A" stroke="#F3EFE7" stroke-width="2.2"/><text class="lab" x="655.8" y="574.8">S Austin</text></g>
<g class="pin"><circle cx="678.3" cy="518.1" r="13.5" fill="#C85B1A" opacity="0.14"/><circle class="dot" cx="678.3" cy="518.1" r="8.5" fill="#C85B1A" stroke="#F3EFE7" stroke-width="2.2"/><text class="lab" x="678.3" y="500.6">Dallas</text></g>
<g class="pin"><circle cx="710.8" cy="604.3" r="13.5" fill="#C85B1A" opacity="0.14"/><circle class="dot" cx="710.8" cy="604.3" r="8.5" fill="#C85B1A" stroke="#F3EFE7" stroke-width="2.2"/><text class="lab" x="710.8" y="586.8">Houston</text></g>
<g class="pin"><circle cx="639.8" cy="614.0" r="13.5" fill="#C85B1A" opacity="0.14"/><circle class="dot" cx="639.8" cy="614.0" r="8.5" fill="#C85B1A" stroke="#F3EFE7" stroke-width="2.2"/><text class="lab" x="639.8" y="596.5">San Antonio</text></g>
<g class="pin"><circle cx="1206.9" cy="282.0" r="13.5" fill="#C85B1A" opacity="0.14"/><circle class="dot" cx="1206.9" cy="282.0" r="8.5" fill="#C85B1A" stroke="#F3EFE7" stroke-width="2.2"/><text class="lab" x="1206.9" y="264.5">Stamford</text></g>
<g class="pin"><circle cx="960.3" cy="490.4" r="13.5" fill="#C85B1A" opacity="0.14"/><circle class="dot" cx="960.3" cy="490.4" r="8.5" fill="#C85B1A" stroke="#F3EFE7" stroke-width="2.2"/><text class="lab" x="960.3" y="472.9">Atlanta</text></g>
<g class="pin"><circle cx="906.0" cy="421.6" r="13.5" fill="#C85B1A" opacity="0.14"/><circle class="dot" cx="906.0" cy="421.6" r="8.5" fill="#C85B1A" stroke="#F3EFE7" stroke-width="2.2"/><text class="lab" x="906.0" y="404.1">Nashville</text></g>
<g class="pin"><circle cx="1041.0" cy="448.1" r="13.5" fill="#C85B1A" opacity="0.14"/><circle class="dot" cx="1041.0" cy="448.1" r="8.5" fill="#C85B1A" stroke="#F3EFE7" stroke-width="2.2"/><text class="lab" x="1041.0" y="430.6">Charlotte</text></g>
<g class="pin"><circle cx="492.1" cy="319.4" r="13.5" fill="#C85B1A" opacity="0.14"/><circle class="dot" cx="492.1" cy="319.4" r="8.5" fill="#C85B1A" stroke="#F3EFE7" stroke-width="2.2"/><text class="lab" x="492.1" y="301.9">Denver</text></g>
<g class="pin"><circle cx="215.5" cy="519.8" r="13.5" fill="#C85B1A" opacity="0.14"/><circle class="dot" cx="215.5" cy="519.8" r="8.5" fill="#C85B1A" stroke="#F3EFE7" stroke-width="2.2"/><text class="lab" x="215.5" y="502.3">San Diego</text></g>
<g class="pin"><circle cx="656.7" cy="584.6" r="18" fill="#006139" opacity="0.14"/><circle class="dot" cx="656.7" cy="584.6" r="13" fill="#006139" stroke="#F3EFE7" stroke-width="2.2"/><text class="lab" x="656.7" y="562.6">N Austin</text></g>
<g class="pin"><circle cx="657.6" cy="590.0" r="18" fill="#006139" opacity="0.14"/><circle class="dot" cx="657.6" cy="590.0" r="13" fill="#006139" stroke="#F3EFE7" stroke-width="2.2"/><text class="lab" x="657.6" y="568.0">E Austin</text></g>
<g class="pin"><circle cx="676.0" cy="512.1" r="18" fill="#006139" opacity="0.14"/><circle class="dot" cx="676.0" cy="512.1" r="13" fill="#006139" stroke="#F3EFE7" stroke-width="2.2"/><text class="lab" x="676.0" y="490.1">Carrollton</text></g>
</svg>